<svg width="569" height="565" viewBox="0 0 569 565" fill="none" xmlns="http://www.w3.org/2000/svg">
<path fill-rule="evenodd" clip-rule="evenodd" d="M480.563 258.558C492.812 316.351 480.648 388.319 432.181 422.025C385.483 454.503 325.495 411.223 268.896 405.767C222.271 401.272 169.115 424.675 134.296 393.309C98.8382 361.368 106.019 306.307 105.48 258.558C104.933 209.974 95.6817 153.819 131.224 120.732C166.347 88.0353 221.33 100.271 268.896 106.433C308.622 111.579 342.481 128.929 375.021 152.315C417.153 182.596 469.799 207.767 480.563 258.558Z" fill="#FFDD00"/>
<path fill-rule="evenodd" clip-rule="evenodd" d="M168.766 116.08C212.435 85.9278 269.085 102.943 321.599 109.93C364.173 115.595 405.213 124.416 438.141 151.921C474.728 182.481 509.07 220.742 511.339 268.418C513.686 317.735 487.617 365.253 449.811 397.125C414.682 426.739 366.683 423.001 321.147 428.755C264.251 435.944 202.806 466.939 155.786 434.276C105.308 399.21 88.6891 330.515 91.1978 269.015C93.6172 209.703 119.858 149.849 168.766 116.08Z" fill="#EE7370"/>
<path d="M140.348 221.845C140.387 221.611 140.426 221.416 140.426 221.22C140.426 219.814 139.176 219.111 138.199 219.111C137.418 219.111 136.598 219.502 136.246 220.4L134.489 224.736C134.254 225.322 134.137 225.829 134.137 226.298C134.137 227.822 135.309 228.72 136.481 228.72C137.692 228.72 138.863 227.9 139.254 226.298L140.348 221.845ZM148.16 221.845C148.199 221.65 148.238 221.455 148.238 221.259C148.238 220.01 147.183 219.111 146.011 219.111C145.23 219.111 144.41 219.502 144.058 220.4L142.301 224.736C142.066 225.322 141.949 225.829 141.949 226.298C141.949 227.822 143.121 228.72 144.293 228.72C145.504 228.72 146.675 227.9 147.066 226.298L148.16 221.845ZM162.862 247C171.689 247 176.962 240.907 176.962 233.134C176.962 225.361 171.689 219.267 162.862 219.267H156.261C154.347 219.267 153.292 220.322 153.292 222.236V244.031C153.292 245.945 154.347 247 156.261 247H162.862ZM158.956 224.384H162.862C167.822 224.384 171.299 227.314 171.299 233.134C171.299 238.954 167.822 241.883 162.862 241.883H158.956V224.384ZM190.667 247.391C197.073 247.391 201.721 242.938 201.721 236.766C201.721 230.634 197.073 226.142 190.667 226.142C184.261 226.142 179.652 230.634 179.652 236.766C179.652 242.938 184.261 247.391 190.667 247.391ZM190.667 242.391C187.425 242.391 185.043 240.008 185.043 236.766C185.043 233.524 187.425 231.142 190.667 231.142C193.948 231.142 196.331 233.524 196.331 236.766C196.331 240.008 193.948 242.391 190.667 242.391ZM231.84 226.376C230.433 226.376 229.027 227.275 229.027 229.15V229.54C227.465 227.275 224.77 226.142 222.231 226.142C215.942 226.142 212.075 230.673 212.075 236.727C212.075 242.547 215.747 247.391 221.918 247.391C225.317 247.391 228.012 245.906 229.027 243.485V244.5C229.027 246.297 230.433 247.273 231.84 247.273C233.246 247.273 234.613 246.297 234.613 244.5V229.15C234.613 227.275 233.207 226.376 231.84 226.376ZM223.364 242.43C220.043 242.43 217.661 240.086 217.661 236.766C217.661 233.524 220.043 231.181 223.364 231.181C226.645 231.181 228.988 233.563 228.988 236.766C228.988 240.008 226.645 242.43 223.364 242.43ZM250.751 226.142C247.821 226.142 245.751 227.353 244.462 229.462V229.111C244.462 227.236 243.056 226.337 241.689 226.337C240.283 226.337 238.876 227.275 238.876 229.111V244.461C238.876 246.297 240.283 247.234 241.689 247.234C243.056 247.234 244.462 246.297 244.462 244.461V236.102C244.501 232.587 246.415 230.907 249.071 230.907C251.18 230.907 253.407 232.001 253.407 235.946V244.383C253.407 246.297 254.852 247.273 256.219 247.273C257.586 247.273 259.031 246.297 259.031 244.383V235.087C259.031 228.876 255.047 226.142 250.751 226.142ZM274.971 228.173C272.276 235.477 271.143 238.719 270.479 241.571C269.776 238.641 268.331 234.813 265.831 228.212C265.323 226.923 264.308 226.376 263.292 226.376C261.808 226.376 260.284 227.509 260.284 229.111C260.284 229.462 260.362 229.814 260.519 230.204L267.628 247.195L265.518 252.586C265.362 252.976 265.284 253.367 265.284 253.718C265.284 255.281 266.69 256.257 268.057 256.257C269.073 256.257 270.088 255.749 270.557 254.539L280.166 230.087C280.322 229.696 280.4 229.306 280.4 228.954C280.4 227.392 278.955 226.337 277.51 226.337C276.494 226.337 275.44 226.884 274.971 228.173ZM291.438 226.572V223.095C291.438 221.259 290.032 220.322 288.665 220.322C287.298 220.322 285.892 221.259 285.892 223.095V226.572H284.486C283.314 226.572 282.298 227.548 282.298 228.759C282.298 229.97 283.314 230.946 284.486 230.946H285.892V244.5C285.892 246.336 287.337 247.273 288.665 247.273C290.032 247.273 291.438 246.336 291.438 244.5V230.946H294.251C295.383 230.946 296.399 229.97 296.399 228.759C296.399 227.548 295.383 226.572 294.251 226.572H291.438ZM311.247 226.142C308.317 226.142 306.247 227.353 304.958 229.423V220.205C304.958 218.369 303.552 217.432 302.185 217.432C300.818 217.432 299.412 218.369 299.412 220.205V244.5C299.412 246.336 300.857 247.273 302.185 247.273C303.552 247.273 304.958 246.336 304.958 244.5V236.102C304.958 232.587 306.872 230.907 309.528 230.907C311.638 230.907 313.864 232.001 313.864 235.946V244.383C313.864 246.297 315.309 247.273 316.676 247.273C318.082 247.273 319.489 246.297 319.489 244.383V235.087C319.489 228.876 315.544 226.142 311.247 226.142ZM326.292 224.54C328.011 224.54 329.417 223.134 329.417 221.416C329.417 219.697 328.011 218.291 326.292 218.291C324.574 218.291 323.168 219.697 323.168 221.416C323.168 223.134 324.574 224.54 326.292 224.54ZM323.519 244.5C323.519 246.336 324.964 247.273 326.292 247.273C327.699 247.273 329.066 246.297 329.066 244.5V229.071C329.066 227.275 327.699 226.298 326.292 226.298C324.925 226.298 323.519 227.275 323.519 229.071V244.5ZM345.158 226.142C342.229 226.142 340.159 227.353 338.87 229.462V229.111C338.87 227.236 337.464 226.337 336.096 226.337C334.69 226.337 333.284 227.275 333.284 229.111V244.461C333.284 246.297 334.69 247.234 336.096 247.234C337.464 247.234 338.87 246.297 338.87 244.461V236.102C338.909 232.587 340.823 230.907 343.479 230.907C345.588 230.907 347.814 232.001 347.814 235.946V244.383C347.814 246.297 349.26 247.273 350.627 247.273C351.994 247.273 353.439 246.297 353.439 244.383V235.087C353.439 228.876 349.455 226.142 345.158 226.142ZM376.178 226.298C374.772 226.298 373.366 227.275 373.366 229.267V229.54C371.804 227.275 369.109 226.142 366.57 226.142C360.281 226.142 356.414 230.673 356.414 236.727C356.414 242.547 360.086 247.391 366.257 247.391C369.655 247.391 372.351 245.906 373.366 243.485V244.891C373.366 249.187 371.374 251.804 366.882 251.804C364.304 251.804 362.742 250.906 361.531 250.554C361.179 250.437 360.867 250.398 360.554 250.398C359.148 250.398 358.367 251.414 358.367 252.507C358.367 253.367 358.836 254.304 359.89 254.89C361.609 255.867 364.617 256.609 367.312 256.609C374.577 256.609 378.913 252 378.913 244.891V229.071C378.913 227.275 377.546 226.298 376.178 226.298ZM367.702 242.43C364.382 242.43 362 240.086 362 236.766C362 233.524 364.382 231.181 367.702 231.181C370.983 231.181 373.327 233.563 373.327 236.766C373.327 240.008 370.983 242.43 367.702 242.43ZM383.568 248.445C383.529 248.68 383.49 248.875 383.49 249.07C383.49 250.359 384.661 251.179 385.755 251.179C386.497 251.179 387.357 250.789 387.708 249.89L389.466 245.555C389.7 244.969 389.817 244.461 389.817 243.992C389.817 242.469 388.646 241.571 387.435 241.571C386.302 241.571 385.13 242.313 384.701 243.992L383.568 248.445ZM414.98 226.181C411.504 226.181 408.848 227.782 407.91 230.126V220.205C407.91 218.369 406.504 217.432 405.137 217.432C403.77 217.432 402.364 218.369 402.364 220.205V244.5C402.364 246.336 403.809 247.273 405.137 247.273C406.504 247.273 407.91 246.336 407.91 244.5V244.031C409.512 246.375 412.246 247.43 414.707 247.43C420.996 247.43 424.862 242.899 424.862 236.844C424.862 231.064 421.191 226.181 414.98 226.181ZM413.574 242.43C410.293 242.43 407.949 240.047 407.949 236.805C407.949 233.563 410.293 231.181 413.574 231.181C416.894 231.181 419.238 233.524 419.238 236.805C419.238 240.086 416.855 242.43 413.574 242.43ZM445.22 226.337C443.814 226.337 442.407 227.275 442.407 229.111V237.508C442.407 240.985 440.493 242.664 437.837 242.664C435.689 242.664 433.463 241.571 433.463 237.626V229.228C433.463 227.275 432.056 226.298 430.689 226.298C429.322 226.298 427.877 227.275 427.877 229.228V238.485C427.877 244.735 431.861 247.43 436.119 247.43C439.048 247.43 441.118 246.219 442.407 244.149V244.461C442.407 246.297 443.853 247.234 445.22 247.234C446.587 247.234 448.032 246.297 448.032 244.461V229.111C448.032 227.275 446.626 226.337 445.22 226.337ZM460.342 226.572V223.095C460.342 221.259 458.936 220.322 457.569 220.322C456.202 220.322 454.796 221.259 454.796 223.095V226.572H453.39C452.218 226.572 451.202 227.548 451.202 228.759C451.202 229.97 452.218 230.946 453.39 230.946H454.796V244.5C454.796 246.336 456.241 247.273 457.569 247.273C458.936 247.273 460.342 246.336 460.342 244.5V230.946H463.155C464.287 230.946 465.303 229.97 465.303 228.759C465.303 227.548 464.287 226.572 463.155 226.572H460.342ZM135.219 303.5C135.219 305.336 136.664 306.273 137.992 306.273C139.359 306.273 140.765 305.336 140.765 303.5V279.205C140.765 277.369 139.359 276.432 137.992 276.432C136.625 276.432 135.219 277.369 135.219 279.205V303.5ZM164.865 294.36C164.201 289.087 160.569 285.142 154.475 285.142C148.343 285.142 143.968 289.712 143.968 295.844C143.968 302.172 148.538 306.391 154.827 306.391C158.108 306.391 160.725 305.063 162.717 302.875C163.225 302.328 163.42 301.742 163.42 301.235C163.42 299.946 162.287 298.891 161.037 298.891C160.412 298.891 159.787 299.125 159.241 299.789C158.186 301.039 156.78 301.821 154.866 301.821C152.014 301.821 149.71 299.985 149.476 297.407H162.17C163.85 297.407 164.904 296.587 164.904 294.946C164.904 294.751 164.904 294.555 164.865 294.36ZM154.475 289.595C157.209 289.595 159.28 291.274 159.514 293.735H149.476C149.632 291.274 151.741 289.595 154.475 289.595ZM175.574 285.572V282.095C175.574 280.259 174.168 279.322 172.801 279.322C171.434 279.322 170.028 280.259 170.028 282.095V285.572H168.622C167.45 285.572 166.434 286.548 166.434 287.759C166.434 288.97 167.45 289.946 168.622 289.946H170.028V303.5C170.028 305.336 171.473 306.273 172.801 306.273C174.168 306.273 175.574 305.336 175.574 303.5V289.946H178.387C179.519 289.946 180.535 288.97 180.535 287.759C180.535 286.548 179.519 285.572 178.387 285.572H175.574ZM194.446 283.54C196.164 283.54 197.571 282.134 197.571 280.416C197.571 278.697 196.164 277.291 194.446 277.291C192.727 277.291 191.321 278.697 191.321 280.416C191.321 282.134 192.727 283.54 194.446 283.54ZM191.673 303.5C191.673 305.336 193.118 306.273 194.446 306.273C195.852 306.273 197.219 305.297 197.219 303.5V288.071C197.219 286.275 195.852 285.298 194.446 285.298C193.079 285.298 191.673 286.275 191.673 288.071V303.5ZM209.523 285.572V282.095C209.523 280.259 208.117 279.322 206.75 279.322C205.383 279.322 203.976 280.259 203.976 282.095V285.572H202.57C201.399 285.572 200.383 286.548 200.383 287.759C200.383 288.97 201.399 289.946 202.57 289.946H203.976V303.5C203.976 305.336 205.422 306.273 206.75 306.273C208.117 306.273 209.523 305.336 209.523 303.5V289.946H212.335C213.468 289.946 214.484 288.97 214.484 287.759C214.484 286.548 213.468 285.572 212.335 285.572H209.523ZM238.238 285.181C234.761 285.181 232.105 286.782 231.168 289.126V288.071C231.168 286.275 229.801 285.298 228.394 285.298C227.027 285.298 225.621 286.275 225.621 288.071V312.64C225.621 314.437 227.027 315.413 228.394 315.413C229.801 315.413 231.168 314.437 231.168 312.64V303.031C232.769 305.375 235.503 306.43 237.964 306.43C244.253 306.43 248.12 301.899 248.12 295.844C248.12 290.064 244.448 285.181 238.238 285.181ZM236.831 301.43C233.55 301.43 231.207 299.047 231.207 295.805C231.207 292.563 233.55 290.181 236.831 290.181C240.152 290.181 242.495 292.524 242.495 295.805C242.495 299.086 240.112 301.43 236.831 301.43ZM260.743 285.533C258.907 285.767 257.736 286.743 256.915 288.111V288.071C256.915 286.275 255.548 285.298 254.142 285.298C252.775 285.298 251.369 286.275 251.369 288.071V303.5C251.369 305.336 252.814 306.273 254.142 306.273C255.509 306.273 256.915 305.336 256.915 303.5V294.321C256.915 291.938 258.204 290.532 260.821 290.376C262.931 290.259 263.829 288.931 263.829 287.681C263.829 286.548 263.048 285.493 261.329 285.493C261.134 285.493 260.938 285.493 260.743 285.533ZM275.634 306.391C282.04 306.391 286.688 301.938 286.688 295.766C286.688 289.634 282.04 285.142 275.634 285.142C269.228 285.142 264.619 289.634 264.619 295.766C264.619 301.938 269.228 306.391 275.634 306.391ZM275.634 301.391C272.392 301.391 270.01 299.008 270.01 295.766C270.01 292.524 272.392 290.142 275.634 290.142C278.915 290.142 281.298 292.524 281.298 295.766C281.298 299.008 278.915 301.391 275.634 301.391ZM308.337 276.432C306.97 276.432 305.564 277.369 305.564 279.205V288.54C304.002 286.275 301.307 285.142 298.768 285.142C292.479 285.142 288.612 289.673 288.612 295.727C288.612 301.547 292.284 306.391 298.455 306.391C301.854 306.391 304.549 304.906 305.564 302.485V303.5C305.564 305.336 307.009 306.273 308.337 306.273C309.705 306.273 311.111 305.336 311.111 303.5V279.205C311.111 277.369 309.705 276.432 308.337 276.432ZM299.901 301.43C296.58 301.43 294.198 299.086 294.198 295.766C294.198 292.524 296.58 290.181 299.901 290.181C303.182 290.181 305.525 292.563 305.525 295.766C305.525 299.008 303.182 301.43 299.901 301.43ZM332.484 285.337C331.077 285.337 329.671 286.275 329.671 288.111V296.508C329.671 299.985 327.757 301.664 325.101 301.664C322.953 301.664 320.727 300.571 320.727 296.626V288.228C320.727 286.275 319.32 285.298 317.953 285.298C316.586 285.298 315.141 286.275 315.141 288.228V297.485C315.141 303.735 319.125 306.43 323.383 306.43C326.312 306.43 328.382 305.219 329.671 303.149V303.461C329.671 305.297 331.116 306.234 332.484 306.234C333.851 306.234 335.296 305.297 335.296 303.461V288.111C335.296 286.275 333.89 285.337 332.484 285.337ZM354.676 305.297C355.77 304.789 356.199 303.891 356.199 303.031C356.199 301.821 355.301 300.649 354.012 300.649C353.739 300.649 353.465 300.688 353.153 300.805C352.176 301.196 351.161 301.352 350.184 301.352C347.059 301.352 344.208 299.477 344.208 295.805C344.208 291.821 347.216 290.22 350.223 290.22C351.239 290.22 352.254 290.415 353.153 290.767C353.504 290.884 353.817 290.962 354.09 290.962C355.418 290.962 356.278 289.829 356.278 288.657C356.278 287.798 355.809 286.9 354.715 286.353C353.192 285.611 351.317 285.22 349.442 285.22C344.208 285.22 338.661 288.345 338.661 295.766C338.661 303.227 344.286 306.391 349.559 306.391C351.395 306.391 353.192 306 354.676 305.297ZM379.543 294.36C378.879 289.087 375.246 285.142 369.153 285.142C363.02 285.142 358.646 289.712 358.646 295.844C358.646 302.172 363.216 306.391 369.504 306.391C372.785 306.391 375.402 305.063 377.394 302.875C377.902 302.328 378.097 301.742 378.097 301.235C378.097 299.946 376.965 298.891 375.715 298.891C375.09 298.891 374.465 299.125 373.918 299.789C372.863 301.039 371.457 301.821 369.543 301.821C366.692 301.821 364.387 299.985 364.153 297.407H376.848C378.527 297.407 379.582 296.587 379.582 294.946C379.582 294.751 379.582 294.555 379.543 294.36ZM369.153 289.595C371.887 289.595 373.957 291.274 374.191 293.735H364.153C364.309 291.274 366.418 289.595 369.153 289.595ZM393.752 283.54C395.471 283.54 396.877 282.134 396.877 280.416C396.877 278.697 395.471 277.291 393.752 277.291C392.033 277.291 390.627 278.697 390.627 280.416C390.627 282.134 392.033 283.54 393.752 283.54ZM390.94 312.64C390.94 314.437 392.346 315.413 393.713 315.413C395.119 315.413 396.486 314.437 396.486 312.64V288.071C396.486 286.275 395.119 285.298 393.713 285.298C392.346 285.298 390.94 286.275 390.94 288.071V312.64ZM410.704 306.391C417.11 306.391 421.758 301.938 421.758 295.766C421.758 289.634 417.11 285.142 410.704 285.142C404.298 285.142 399.689 289.634 399.689 295.766C399.689 301.938 404.298 306.391 410.704 306.391ZM410.704 301.391C407.462 301.391 405.079 299.008 405.079 295.766C405.079 292.524 407.462 290.142 410.704 290.142C413.985 290.142 416.368 292.524 416.368 295.766C416.368 299.008 413.985 301.391 410.704 301.391ZM437.257 287.173C434.562 294.477 433.429 297.719 432.765 300.571C432.062 297.641 430.617 293.813 428.117 287.212C427.609 285.923 426.593 285.376 425.578 285.376C424.094 285.376 422.57 286.509 422.57 288.111C422.57 288.462 422.648 288.814 422.805 289.204L429.914 306.195L427.804 311.586C427.648 311.976 427.57 312.367 427.57 312.718C427.57 314.281 428.976 315.257 430.343 315.257C431.359 315.257 432.374 314.749 432.843 313.539L442.452 289.087C442.608 288.696 442.686 288.306 442.686 287.954C442.686 286.392 441.241 285.337 439.796 285.337C438.78 285.337 437.726 285.884 437.257 287.173ZM446.439 306.391C448.079 306.391 449.407 305.063 449.407 303.383C449.407 301.742 448.079 300.414 446.439 300.414C444.798 300.414 443.431 301.742 443.431 303.383C443.431 305.063 444.759 306.391 446.439 306.391ZM448.509 284.673C448.47 284.869 448.431 285.103 448.431 285.259C448.431 286.587 449.603 287.407 450.696 287.407C451.556 287.407 452.298 286.939 452.649 286.079L454.407 281.783C454.641 281.197 454.758 280.689 454.758 280.22C454.758 278.658 453.587 277.76 452.376 277.76C451.243 277.76 450.071 278.541 449.642 280.22L448.509 284.673ZM456.321 284.673C456.282 284.869 456.243 285.103 456.243 285.259C456.243 286.587 457.415 287.407 458.508 287.407C459.368 287.407 460.11 286.939 460.461 286.079L462.219 281.783C462.453 281.197 462.57 280.689 462.57 280.22C462.57 278.658 461.438 277.76 460.188 277.76C459.055 277.76 457.883 278.541 457.454 280.22L456.321 284.673Z" fill="white"/>
<path d="M228.798 357.48V355.84H234.558V357.48H228.798ZM240.476 362L235.536 347.9H237.656L241.436 359L245.316 347.9H246.896L250.736 359.12L254.596 347.9H256.616L251.636 362H249.896L246.076 351.04L242.216 362H240.476ZM260.513 362.18C259.833 362.18 259.226 362.047 258.693 361.78C258.159 361.513 257.733 361.153 257.413 360.7C257.106 360.247 256.953 359.733 256.953 359.16C256.953 358.44 257.133 357.873 257.493 357.46C257.866 357.047 258.473 356.747 259.313 356.56C260.166 356.373 261.313 356.28 262.753 356.28H263.433V355.76C263.433 355 263.273 354.453 262.953 354.12C262.633 353.787 262.106 353.62 261.373 353.62C260.813 353.62 260.253 353.707 259.693 353.88C259.133 354.04 258.559 354.3 257.973 354.66L257.353 353.24C257.859 352.88 258.493 352.593 259.253 352.38C260.013 352.167 260.739 352.06 261.433 352.06C262.766 352.06 263.753 352.38 264.393 353.02C265.033 353.647 265.353 354.633 265.353 355.98V362H263.453V360.38C263.213 360.94 262.839 361.38 262.333 361.7C261.826 362.02 261.219 362.18 260.513 362.18ZM260.913 360.74C261.633 360.74 262.233 360.487 262.713 359.98C263.193 359.473 263.433 358.833 263.433 358.06V357.52H262.773C261.799 357.52 261.033 357.567 260.473 357.66C259.926 357.753 259.533 357.913 259.293 358.14C259.066 358.353 258.953 358.653 258.953 359.04C258.953 359.547 259.126 359.96 259.473 360.28C259.819 360.587 260.299 360.74 260.913 360.74ZM271.315 362.18C270.248 362.18 269.448 361.88 268.915 361.28C268.395 360.68 268.135 359.8 268.135 358.64V347.9H270.155V358.52C270.155 359.84 270.695 360.5 271.775 360.5C271.935 360.5 272.082 360.493 272.215 360.48C272.362 360.467 272.508 360.44 272.655 360.4L272.615 362.02C272.162 362.127 271.728 362.18 271.315 362.18ZM278.193 362.18C276.967 362.18 276.053 361.867 275.453 361.24C274.853 360.613 274.553 359.707 274.553 358.52V353.8H272.653V352.24H274.553V349.3H276.573V352.24H279.593V353.8H276.573V358.36C276.573 359.067 276.72 359.6 277.013 359.96C277.32 360.32 277.813 360.5 278.493 360.5C278.707 360.5 278.913 360.48 279.113 360.44C279.313 360.387 279.513 360.327 279.713 360.26L280.033 361.78C279.833 361.9 279.553 361.993 279.193 362.06C278.847 362.14 278.513 362.18 278.193 362.18ZM290.652 362L285.712 347.9H287.832L291.612 359L295.492 347.9H297.072L300.912 359.12L304.772 347.9H306.792L301.812 362H300.072L296.252 351.04L292.392 362H290.652ZM308.74 362V347.9H310.76V353.76C311.094 353.2 311.54 352.78 312.1 352.5C312.674 352.207 313.314 352.06 314.02 352.06C316.327 352.06 317.48 353.367 317.48 355.98V362H315.46V356.1C315.46 355.26 315.294 354.647 314.96 354.26C314.64 353.873 314.134 353.68 313.44 353.68C312.627 353.68 311.974 353.94 311.48 354.46C311 354.967 310.76 355.64 310.76 356.48V362H308.74ZM320.084 349.98V347.88H322.444V349.98H320.084ZM320.264 362V352.24H322.284V362H320.264ZM329.287 362.18C328.06 362.18 327.147 361.867 326.547 361.24C325.947 360.613 325.647 359.707 325.647 358.52V353.8H323.747V352.24H325.647V349.3H327.667V352.24H330.687V353.8H327.667V358.36C327.667 359.067 327.814 359.6 328.107 359.96C328.414 360.32 328.907 360.5 329.587 360.5C329.8 360.5 330.007 360.48 330.207 360.44C330.407 360.387 330.607 360.327 330.807 360.26L331.127 361.78C330.927 361.9 330.647 361.993 330.287 362.06C329.94 362.14 329.607 362.18 329.287 362.18ZM332.472 362V352.24H334.432V353.82C334.725 353.26 335.132 352.827 335.652 352.52C336.172 352.213 336.778 352.06 337.472 352.06C338.965 352.06 339.932 352.713 340.372 354.02C340.678 353.407 341.118 352.927 341.692 352.58C342.265 352.233 342.918 352.06 343.652 352.06C345.838 352.06 346.932 353.367 346.932 355.98V362H344.912V356.08C344.912 355.253 344.765 354.647 344.472 354.26C344.192 353.873 343.725 353.68 343.072 353.68C342.338 353.68 341.758 353.94 341.332 354.46C340.905 354.967 340.692 355.66 340.692 356.54V362H338.672V356.08C338.672 355.253 338.532 354.647 338.252 354.26C337.972 353.873 337.505 353.68 336.852 353.68C336.118 353.68 335.538 353.94 335.112 354.46C334.698 354.967 334.492 355.66 334.492 356.54V362H332.472ZM352.876 362.18C352.196 362.18 351.589 362.047 351.056 361.78C350.523 361.513 350.096 361.153 349.776 360.7C349.469 360.247 349.316 359.733 349.316 359.16C349.316 358.44 349.496 357.873 349.856 357.46C350.229 357.047 350.836 356.747 351.676 356.56C352.529 356.373 353.676 356.28 355.116 356.28H355.796V355.76C355.796 355 355.636 354.453 355.316 354.12C354.996 353.787 354.469 353.62 353.736 353.62C353.176 353.62 352.616 353.707 352.056 353.88C351.496 354.04 350.923 354.3 350.336 354.66L349.716 353.24C350.223 352.88 350.856 352.593 351.616 352.38C352.376 352.167 353.103 352.06 353.796 352.06C355.129 352.06 356.116 352.38 356.756 353.02C357.396 353.647 357.716 354.633 357.716 355.98V362H355.816V360.38C355.576 360.94 355.203 361.38 354.696 361.7C354.189 362.02 353.583 362.18 352.876 362.18ZM353.276 360.74C353.996 360.74 354.596 360.487 355.076 359.98C355.556 359.473 355.796 358.833 355.796 358.06V357.52H355.136C354.163 357.52 353.396 357.567 352.836 357.66C352.289 357.753 351.896 357.913 351.656 358.14C351.429 358.353 351.316 358.653 351.316 359.04C351.316 359.547 351.489 359.96 351.836 360.28C352.183 360.587 352.663 360.74 353.276 360.74ZM360.498 362V352.24H362.458V353.86C362.791 353.273 363.245 352.827 363.818 352.52C364.405 352.213 365.058 352.06 365.778 352.06C368.085 352.06 369.238 353.367 369.238 355.98V362H367.218V356.1C367.218 355.26 367.051 354.647 366.718 354.26C366.398 353.873 365.891 353.68 365.198 353.68C364.385 353.68 363.731 353.94 363.238 354.46C362.758 354.967 362.518 355.64 362.518 356.48V362H360.498Z" fill="white"/>
</svg>
